<svg width="100" height="136" viewBox="0 0 100 136" fill="none" xmlns="http://www.w3.org/2000/svg">
<path fill-rule="evenodd" clip-rule="evenodd" d="M98.4061 0L15.8623 21.8151V81.3647L39.2859 67.6914V37.7551L98.4061 21.7241V0ZM39.2859 101.521L15.8623 114.382V135.608L98.4061 119.099V96.1045L39.2859 110.255V101.521Z" fill="#5DAEC1"/>
<path d="M1.06085 89.0295L98.9393 32.4282L98.9393 34.7865L1.06071 91.388L1.06085 89.0295Z" fill="#5DAEC1"/>
<path d="M1.06071 107.897L98.9393 51.2953V53.6537L1.06059 110.255L1.06071 107.897Z" fill="#5DAEC1"/>
<path d="M1.06071 98.4632L98.9393 41.8617V44.2201L1.06059 100.822L1.06071 98.4632Z" fill="#5DAEC1"/>
<path d="M1.06071 117.33L98.9393 60.7289V63.0873L1.06059 119.689L1.06071 117.33Z" fill="#5DAEC1"/>
<path d="M1.06071 93.7464L98.9393 37.145V39.5033L1.06059 96.1049L1.06071 93.7464Z" fill="#5DAEC1"/>
<path d="M1.06071 112.614L98.9393 56.0121V58.3705L1.06059 114.972L1.06071 112.614Z" fill="#5DAEC1"/>
<path d="M1.06071 103.18L98.9393 46.5785V48.9369L1.06059 105.538L1.06071 103.18Z" fill="#5DAEC1"/>
<path d="M1.06071 122.047L98.9393 65.4457V67.8041L1.06059 124.406L1.06071 122.047Z" fill="#5DAEC1"/>
</svg>
